<?xml version="1.0" encoding="utf-8"?>
<!-- Generator: Adobe Illustrator 15.0.2, SVG Export Plug-In . SVG Version: 6.00 Build 0)  -->
<!DOCTYPE svg PUBLIC "-//W3C//DTD SVG 1.1//EN" "http://www.w3.org/Graphics/SVG/1.1/DTD/svg11.dtd">
<svg version="1.1"
	 id="svg3882" inkscape:version="0.48.5 r10040" sodipodi:docname="1og.svg" xmlns:dc="http://purl.org/dc/elements/1.1/" xmlns:cc="http://creativecommons.org/ns#" xmlns:rdf="http://www.w3.org/1999/02/22-rdf-syntax-ns#" xmlns:svg="http://www.w3.org/2000/svg" xmlns:sodipodi="http://sodipodi.sourceforge.net/DTD/sodipodi-0.dtd" xmlns:inkscape="http://www.inkscape.org/namespaces/inkscape"
	 xmlns="http://www.w3.org/2000/svg" xmlns:xlink="http://www.w3.org/1999/xlink" x="0px" y="0px" width="433px" height="280px"
	 viewBox="0 0 433 280" enable-background="new 0 0 433 280" xml:space="preserve">
<sodipodi:namedview  width="105000mm" units="px" id="base" inkscape:current-layer="layer1" inkscape:pageshadow="2" inkscape:pageopacity="0.0" inkscape:document-units="pc" inkscape:window-maximized="1" inkscape:cy="109.02878" showguides="true" inkscape:cx="261.54796" inkscape:zoom="1.4" borderopacity="1.0" bordercolor="#666666" showgrid="false" pagecolor="#ffffff" inkscape:guide-bbox="true" inkscape:window-y="-8" inkscape:window-x="-8" inkscape:window-height="1018" inkscape:window-width="1920">
	<sodipodi:guide  id="guide3090" position="-12.857143,86.428571" orientation="1,0"></sodipodi:guide>
</sodipodi:namedview>
<g id="layer1" transform="translate(0,-772.36216)" inkscape:label="Layer 1" inkscape:groupmode="layer">
	<path id="raum107" inkscape:connector-curvature="0" sodipodi:nodetypes="ccccc" fill="#FFFF00" d="M273.875,940.032l21.249-36.926
		l94.314,0.078l-21.304,37.003L273.875,940.032z"/>
	<path id="raum108" inkscape:connector-curvature="0" sodipodi:nodetypes="ccccc" fill="#FFFF00" d="M249.436,982.182l23.938-41.05
		l93.783,0.109l-23.406,40.94H249.436z"/>
	<path id="raum109" inkscape:connector-curvature="0" sodipodi:nodetypes="ccccc" fill="#FFFF00" d="M209.908,1050.809l38.903-67.49
		l93.824,0.158l-38.903,67.491L209.908,1050.809z"/>
	<path id="raum106" inkscape:connector-curvature="0" sodipodi:nodetypes="cccccccc" fill="#FFFF00" d="M306.567,885.729
		l32.092-55.777l93.389-0.078l-41.682,72.068l-84.671-0.078l6.32-13.343l1.525-2.792H306.567z"/>
	<path id="raum104" inkscape:connector-curvature="0" sodipodi:nodetypes="ccccccc" fill="#FFFF00" d="M222.467,901.931
		l41.687-72.024h73.642l-32.341,55.623l-24.117,0.109l-9.324,16.347L222.467,901.931z"/>
	<path id="raum104a" inkscape:connector-curvature="0" sodipodi:nodetypes="ccccc" fill="#FFFF00" d="M141.475,901.865l41.735-71.99
		l79.877,0.078l-41.682,72.068L141.475,901.865z"/>
	<path id="raum101" inkscape:connector-curvature="0" inkscape:label="#raum101" sodipodi:nodetypes="ccccc" fill="#FFFF00" d="
		M54.842,1051.275l39.365-67.911l79.406-0.02l-39.511,67.964L54.842,1051.275z"/>
	<g id="g4472" transform="matrix(0.20659417,-0.35646652,0.61024031,0,-0.05999561,1052.3017)">
		<path id="path4474" inkscape:connector-curvature="0" fill="none" stroke="#1B181C" stroke-width="1.9843" d="M420.058,231.733
			V88.158l205.37,0.001v409.428l-205.37,0.001V341.54"/>
		<path id="path4476" inkscape:connector-curvature="0" fill="none" stroke="#1B181C" stroke-width="1.9843" d="M324.992,220.96
			l-38.159-0.001V88.156l133.226,0.001v132.803l-59.916-0.001"/>
		<path id="path4478" inkscape:connector-curvature="0" fill="none" stroke="#1B181C" stroke-width="1.9843" d="M205.725,220.961
			l-10.668,0.001V88.158l91.775-0.002V220.96l-44.753,0.001"/>
		<path id="path4480" inkscape:connector-curvature="0" fill="none" stroke="#1B181C" stroke-width="1.9843" d="M368.433,341.363
			l51.626-0.001v156.225l-225.001-0.001V341.363l43.444-0.001"/>
		<path id="path4482" inkscape:connector-curvature="0" fill="none" stroke="#1B181C" stroke-width="1.9843" d="M273.65,341.362
			l57.933,0"/>
		<path id="path4484" inkscape:connector-curvature="0" fill="none" stroke="#1B181C" stroke-width="1.9843" d="M194.917,89.859
			V0.993L0.992,0.992v153.851"/>
		<path id="path4486" inkscape:connector-curvature="0" fill="none" stroke="#1B181C" stroke-width="1.9843" d="M1.948,219.721
			l142.69-0.001"/>
		<path id="path4488" inkscape:connector-curvature="0" fill="none" stroke="#1B181C" stroke-width="1.9843" d="M133.866,220.96"/>
		<path id="path4490" inkscape:connector-curvature="0" fill="none" stroke="#1B181C" stroke-width="1.9843" d="M184.217,341.362
			l10.84,0.001v156.224L1.948,497.586V341.362l146.125,0"/>
		<path id="path4492" inkscape:connector-curvature="0" fill="none" stroke="#1B181C" stroke-width="1.9843" d="M0.992,154.842
			v147.261"/>
		<path id="path4494" inkscape:connector-curvature="0" fill="none" stroke="#1B181C" stroke-width="1.9843" d="M1.948,302.103
			v39.26"/>
		<path id="path4496" inkscape:connector-curvature="0" fill="none" stroke="#1B181C" stroke-width="1.9843" d="M160.44,88.157
			l34.617,0.001"/>
		<path id="path4498" inkscape:connector-curvature="0" fill="none" stroke="#1B181C" stroke-width="1.9843" d="M1.948,88.158
			l113.741,0"/>
		<path id="path4500" inkscape:connector-curvature="0" fill="none" stroke="#1B181C" stroke-width="1.9843" d="M313.688,341.362
			v156.225"/>
		<path id="path4502" inkscape:connector-curvature="0" fill="none" stroke="#1B181C" stroke-width="1.9843" d="M625.428,220.962
			l-154.311,0"/>
		<path id="path4504" inkscape:connector-curvature="0" fill="none" stroke="#1B181C" stroke-width="1.9843" d="M420.058,220.961
			l13.146,0"/>
		<path id="path4506" inkscape:connector-curvature="0" fill="none" stroke="#1B181C" stroke-width="1.9843" d="M195.057,220.962
			v34.44"/>
		<path id="path4508" inkscape:connector-curvature="0" fill="none" stroke="#1B181C" stroke-width="1.9843" d="M195.057,305.185
			v36.178"/>
		<path id="path4510" inkscape:connector-curvature="0" fill="none" stroke="#009DDC" stroke-width="1.9843" d="M420.058,298.914
			v-37.949"/>
		<path id="path4512" inkscape:connector-curvature="0" fill="none" stroke="#1B181C" stroke-width="1.9843" d="M420.058,231.733
			v-8.93"/>
		<path id="path4514" inkscape:connector-curvature="0" fill="none" stroke="#1B181C" stroke-width="1.9843" d="M465.873,303.945
			l-45.815,0v-45.143"/>
		<path id="path4516" inkscape:connector-curvature="0" fill="none" stroke="#1B181C" stroke-width="1.9843" d="M465.873,303.945
			v39.295l159.555,0"/>
		<path id="path4518" inkscape:connector-curvature="0" fill="none" stroke="#1B181C" stroke-width="1.9843" d="M460.912,354.685
			l4.961,0.001v-11.445"/>
		<path id="path4520" inkscape:connector-curvature="0" fill="none" stroke="#1B181C" stroke-width="1.9843" d="M59.35,298.914
			v42.449"/>
		<path id="path4522" inkscape:connector-curvature="0" fill="none" stroke="#1B181C" stroke-width="1.9843" d="M68.281,298.913
			v42.448"/>
		<path id="path4524" inkscape:connector-curvature="0" fill="none" stroke="#1B181C" stroke-width="1.9843" d="M77.492,298.914
			v42.448"/>
		<path id="path4526" inkscape:connector-curvature="0" fill="none" stroke="#1B181C" stroke-width="1.9843" d="M86.455,298.914
			v42.449"/>
		<path id="path4528" inkscape:connector-curvature="0" fill="none" stroke="#1B181C" stroke-width="1.9843" d="M94.748,298.913
			v42.449"/>
		<path id="path4530" inkscape:connector-curvature="0" fill="none" stroke="#1B181C" stroke-width="1.9843" d="M103.712,298.914
			v42.448"/>
		<path id="path4532" inkscape:connector-curvature="0" fill="none" stroke="#1B181C" stroke-width="1.9843" d="M112.925,298.914
			v42.448"/>
		<path id="path4534" inkscape:connector-curvature="0" fill="none" stroke="#1B181C" stroke-width="1.9843" d="M121.856,298.914
			v42.448"/>
		<path id="path4536" inkscape:connector-curvature="0" fill="none" stroke="#1B181C" stroke-width="1.9843" d="M129.899,298.913
			v42.449"/>
		<path id="path4538" inkscape:connector-curvature="0" fill="none" stroke="#1B181C" stroke-width="1.9843" d="M59.457,219.934
			v42.448"/>
		<path id="path4540" inkscape:connector-curvature="0" fill="none" stroke="#1B181C" stroke-width="1.9843" d="M68.421,219.933
			v42.449"/>
		<path id="path4542" inkscape:connector-curvature="0" fill="none" stroke="#1B181C" stroke-width="1.9843" d="M77.634,219.933
			v42.449"/>
		<path id="path4544" inkscape:connector-curvature="0" fill="none" stroke="#1B181C" stroke-width="1.9843" d="M86.598,219.934
			v42.448"/>
		<path id="path4546" inkscape:connector-curvature="0" fill="none" stroke="#1B181C" stroke-width="1.9843" d="M94.888,219.935
			v42.448"/>
		<path id="path4548" inkscape:connector-curvature="0" fill="none" stroke="#1B181C" stroke-width="1.9843" d="M103.819,219.934
			v42.448"/>
		<path id="path4550" inkscape:connector-curvature="0" fill="none" stroke="#1B181C" stroke-width="1.9843" d="M113.068,219.933
			v42.449"/>
		<path id="path4552" inkscape:connector-curvature="0" fill="none" stroke="#1B181C" stroke-width="1.9843" d="M121.996,219.933
			v42.449"/>
		<path id="path4554" inkscape:connector-curvature="0" fill="none" stroke="#1B181C" stroke-width="1.9843" d="M130.039,219.934
			v42.448"/>
		<path id="path4556" inkscape:connector-curvature="0" fill="none" stroke="#1B181C" stroke-width="1.9843" d="M2.055,298.488
			l54.249-0.001"/>
		<path id="path4558" inkscape:connector-curvature="0" fill="none" stroke="#1B181C" stroke-width="1.9843" d="M2.055,292.004
			l54.249,0.001"/>
		<path id="path4560" inkscape:connector-curvature="0" fill="none" stroke="#1B181C" stroke-width="1.9843" d="M2.055,284.988
			l54.249,0.001"/>
		<path id="path4562" inkscape:connector-curvature="0" fill="none" stroke="#1B181C" stroke-width="1.9843" d="M2.055,277.759
			l54.249,0.001"/>
		<path id="path4564" inkscape:connector-curvature="0" fill="none" stroke="#1B181C" stroke-width="1.9843" d="M2.055,270.744
			l54.249,0.001"/>
		<path id="path4566" inkscape:connector-curvature="0" fill="none" stroke="#1B181C" stroke-width="1.9843" d="M2.055,264.472
			l54.249,0.001"/>
	</g>
	<g id="flowRoot3038" transform="matrix(1.2000522,0,0,2.0044674,-14.625324,522.54695)">
	</g>
	<g id="flowRoot3046" transform="matrix(1.2000522,0,0,2.0044674,-13.413088,548.8696)">
	</g>
	<g id="flowRoot3054" transform="matrix(1.2000522,0,0,2.0044674,-7.351909,534.69587)">
	</g>
	<g id="flowRoot3062" transform="matrix(1.2000522,0,0,2.0044674,-13.413088,538.74551)">
	</g>
	<g id="flowRoot3070" transform="matrix(1.2000522,0,0,2.0044674,-7.351909,567.09295)">
	</g>
	<g id="flowRoot3078" transform="matrix(1.2000522,0,0,2.0044674,-9.7763805,561.01849)">
	</g>
	<text transform="matrix(0.7024 0 0 1 251.4211 1023.4348)" font-family="'Arial-BoldMT'" font-size="21.2366">42/109</text>
	<text transform="matrix(0.7024 0 0 1 276.7512 969.4426)" font-family="'Arial-BoldMT'" font-size="21.2366">42/108</text>
	<text transform="matrix(0.7024 0 0 1 307.7952 927.7708)" font-family="'Arial-BoldMT'" font-size="21.2366">42/107</text>
	<text transform="matrix(0.7024 0 0 1 335.9407 873.1575)" font-family="'Arial-BoldMT'" font-size="21.2366">42/106</text>
	<text transform="matrix(0.7024 0 0 1 255.5999 868.6194)" font-family="'Arial-BoldMT'" font-size="21.2366">42/104</text>
	<g id="flowRoot3103" transform="matrix(1.2000522,0,0,2.0044674,-0.07849461,-1057.2482)">
	</g>
	<text transform="matrix(0.7024 0 0 1 144.5183 930.3373)" font-family="'ArialMT'" font-size="18.4051">Küche</text>
	<text transform="matrix(0.7024 0 0 1 90.4685 1022.6332)" font-family="'Arial-BoldMT'" font-size="21.2366">42/101</text>
	<text transform="matrix(0.7024 0 0 1 30.8005 1017.3969)" font-family="'ArialMT'" font-size="18.4051">Balkon</text>
	<text transform="matrix(0.7024 0 0 1 175.6736 867.4691)" font-family="'Arial-BoldMT'" font-size="21.2366">42/104a</text>
	<g id="g3197" transform="matrix(0.99996608,0,0,1.4078594,52.937056,-429.52877)">
		<path id="imagebot_28" inkscape:connector-curvature="0" stroke="#000000" stroke-width="0.3564" d="M89.751,987.812l3.549,0.023
			c0.772,0.005,1.389,0.575,1.385,1.278l-0.019,3.345c-0.005,0.703-0.629,1.265-1.4,1.26l-3.548-0.024
			c-0.772-0.004-1.39-0.575-1.385-1.278l0.019-3.345C88.355,988.368,88.979,987.807,89.751,987.812z"/>
		<path id="imagebot_27" inkscape:connector-curvature="0" stroke="#000000" stroke-width="0.3563" d="M93.107,985.739
			c-0.005,0.79-0.711,1.426-1.578,1.421s-1.566-0.651-1.562-1.441c0.004-0.791,0.711-1.427,1.578-1.421
			C92.412,984.304,93.111,984.949,93.107,985.739z"/>
		<g id="imagebot_24" transform="matrix(0.04442908,2.9164391e-4,-2.3096953e-4,0.04050332,69.278732,959.62869)">
			<path id="imagebot_26" inkscape:connector-curvature="0" stroke="#000000" stroke-width="8.4858" d="M549.766,740.751
				l0.005,195.509c-0.008,11.132-8.996,20.119-20.14,20.114l-4.572-0.001c-11.166,0.012-20.137-8.966-20.129-20.132l-0.001-127.109"
				/>
			<path id="imagebot_25" inkscape:connector-curvature="0" stroke="#000000" stroke-width="8.4858" d="M458.896,740.755
				l0.005,195.492c-0.008,11.149,8.963,20.127,20.129,20.132l4.572,0.001c11.144,0.005,20.132-8.965,20.14-20.131l-0.002-127.126"/>
		</g>
	</g>
	<g id="flowRoot3390" transform="translate(-90.064877,779.82255)">
	</g>
</g>
<rect x="9.5" y="9" fill="none" width="313" height="38.5"/>
<text transform="matrix(1 0 0 1 9.5002 25.3301)" font-family="'MyriadPro-Regular'" font-size="23">1. Obergeschoss</text>
</svg>
